<svg id="Layer_1" enable-background="new 0 0 512 512" height="512" viewBox="0 0 512 512" width="512" xmlns="http://www.w3.org/2000/svg"><g><path d="m441.504 104.137c-3.539 10.399-9.308 20.01-17.144 28.252-3.338 3.511-6.998 6.66-10.894 9.454v20.624c19.747 5.617 34.267 23.81 34.267 45.331v96.4c0 21.349-14.084 39.504-34.267 45.238v65.419c55.465-6.366 98.534-53.393 98.534-110.655v-96.4c0-47.083-29.173-87.362-70.496-103.663z"/><path d="m347.066 156.4v131.733c0 42.531-34.602 77.132-77.132 77.132-.42 0-.848-.003-1.269-.01-41.832-.678-75.865-35.629-75.865-77.911v-50.659c-13.044 10.099-29.399 16.114-47.135 16.114-42.531 0-77.133-34.602-77.133-77.133v-19.266h-20.607c-5.36 0-10.643-.554-15.791-1.605v277.938c0 43.86 35.482 79.267 79.266 79.267h192.8c43.856 0 79.267-35.501 79.267-79.267v-277.837c-4.915.984-9.938 1.504-15 1.504z"/><path d="m415.538 76.832c-1.163-22.995-19.126-42.029-42.024-44.433-8.145-.855-16.159.377-23.41 3.446-11.794-12.455-28.333-19.779-45.904-19.779-13.082 0-25.754 4.124-36.281 11.492-14.836-17.336-36.545-27.558-60.119-27.558-23.578 0-45.289 10.221-60.127 27.559-10.525-7.369-23.194-11.492-36.272-11.492-17.573 0-34.115 7.323-45.91 19.778-5.746-2.433-11.969-3.711-18.356-3.711-26.292 0-47.626 21.64-47.125 48.044.49 25.805 22.107 46.223 47.916 46.223h33.474c9.462 0 17.133 7.671 17.133 17.133v32.133c0 26.079 21.086 47.133 47.133 47.133 26.038 0 47.134-21.192 47.134-47.133v-34.267c0-8.284 6.716-15 15-15s15 6.716 15 15v145.944c0 25.859 20.498 47.496 46.353 47.916 26.395.428 47.913-20.927 47.913-47.126v-144.6c0-9.462 7.671-17.133 17.133-17.133h34.267c26.797-.001 48.442-22.479 47.072-49.569z"/></g></svg>